<svg viewBox="0 0 380 198" fill="none" xmlns="http://www.w3.org/2000/svg">
<path d="M99.3 2.20001C98.2 3.70001 100.2 -0.899988 59 95.5C41.9 135.6 26 171.8 23.7 175.8C18.3 185.4 13.6 189.5 6 191.7C0.9 193.1 0 193.7 0 195.7V198H30H60V195.6C60 193.5 59.4 193.1 55.3 192.5C47.1 191.4 43 189.8 40.4 186.7C36.2 181.7 37.1 177.4 48.7 150.5L55.6 134.5L93.2 134.2L130.7 134L137.5 150.1C148.4 176 149.6 180.9 146 186.7C144.6 189.1 142.8 190.3 138.9 191.4C136 192.3 132.4 193 130.8 193C128.5 193 128 193.4 128 195.5V198H166H204V195.5C204 193.7 203.5 193 202.2 193C201.2 193 198 192.3 195.1 191.4C188.1 189.4 182.2 183.8 177.4 174.7C175.3 170.8 158 130.1 138.9 84.5C103.3 -0.499988 102.6 -1.99999 99.3 2.20001ZM109.9 83.2C118.1 102.9 125.1 119.8 125.5 121C126.1 123 125.9 123 93.5 123C62.8 123 60.8 122.9 61.4 121.2C64.7 112.1 93.7 46.3 94.2 46.8C94.6 47.2 101.6 63.6 109.9 83.2Z" fill="black"/>
<path d="M133 8.3C133 10.5 133.5 10.8 139.6 11.3C148.7 12.2 153.8 15.2 157 21.5L159.5 26.5L160 70.5L160.5 114.5L166 127.4L171.5 140.3L172 88.4L172.5 36.5L183.5 60.5C189.6 73.7 206.3 110 220.5 141.2C244.7 194.1 246.7 197.9 249 198C251.4 198 252.9 195 272.5 152.2C284 127.1 298.9 94.6 305.5 80C312.2 65.4 319.5 49.7 321.8 45L325.8 36.5L325.9 103.5C325.9 140.3 325.5 173.4 325 176.9C323.4 187.9 318.5 192.1 306 193C299.3 193.4 298.5 193.7 298.5 195.5C298.5 197.5 299.3 197.5 339.3 197.8L380 198V195.6C380 193.4 379.6 193.2 372.1 192.8C366.2 192.5 363.4 191.8 360.5 190C353.2 185.5 353.5 189.3 353.2 105.1C353 54.3 353.3 27.9 354 24.5C355.8 15.8 362.9 11 374 11C379.7 11 380 10.9 380 8.5V6H352.8H325.5L291.6 80.6C272.9 121.6 257.4 155.3 257.1 155.4C256.8 155.6 241 122.2 222 81.1L187.4 6.5L160.2 6.2L133 6V8.3Z" fill="black"/>
</svg>
